<svg xmlns="http://www.w3.org/2000/svg" width="62" height="40" viewBox="0 0 62 40">
  <g id="black" transform="translate(-41.667 -23.308)">
    <g id="trip_advisor" transform="translate(41.667 23.308)">
      <path id="Path_19" data-name="Path 19" d="M58.7,12.363A15.424,15.424,0,0,1,61.437,6.81H51.155c-.17-.057-.347-.1-.52-.147C50.076,5.705,46.251.308,30.966.308c-16.775,0-19.748,6.5-19.748,6.5H.494a16.384,16.384,0,0,1,2.9,6.1A18.075,18.075,0,0,0,.231,23.183c0,9.442,7.024,17.124,15.658,17.124a15.123,15.123,0,0,0,11.946-6.08l3.555,5.444,3.068-5.655a15.161,15.161,0,0,0,12.114,6.291c8.633,0,15.658-7.682,15.658-17.124A18.043,18.043,0,0,0,58.7,12.363ZM16.15,36.671c-6.93,0-12.568-6.117-12.568-13.636S9.22,9.4,16.15,9.4s12.567,6.118,12.567,13.637S23.079,36.671,16.15,36.671ZM10.818,17.25a8.682,8.682,0,0,0,0,11.571,7.207,7.207,0,0,0,5.332,2.4c4.158,0,7.54-3.67,7.54-8.181s-3.383-8.182-7.54-8.182A7.207,7.207,0,0,0,10.818,17.25ZM12,27.535a6.753,6.753,0,0,1,0-9,5.6,5.6,0,0,1,4.148-1.865,6.137,6.137,0,0,1,5.864,6.364A6.136,6.136,0,0,1,16.15,29.4,5.607,5.607,0,0,1,12,27.535Zm1.634-4.5a2.627,2.627,0,0,0,2.514,2.727,2.736,2.736,0,0,0,0-5.454A2.628,2.628,0,0,0,13.636,23.035ZM46.312,36.671c-6.93,0-12.568-6.117-12.568-13.636S39.382,9.4,46.312,9.4s12.568,6.118,12.568,13.637S53.242,36.671,46.312,36.671ZM40.98,17.25a8.682,8.682,0,0,0,0,11.571,7.207,7.207,0,0,0,5.332,2.4c4.158,0,7.54-3.67,7.54-8.181s-3.383-8.182-7.54-8.182A7.207,7.207,0,0,0,40.98,17.25Zm1.185,10.285a6.753,6.753,0,0,1,0-9,5.6,5.6,0,0,1,4.148-1.865,6.137,6.137,0,0,1,5.864,6.364A6.136,6.136,0,0,1,46.312,29.4a5.607,5.607,0,0,1-4.148-1.863Zm1.634-4.5a2.522,2.522,0,1,0,2.514-2.728A2.627,2.627,0,0,0,43.8,23.035ZM30.917,2.126c10.578,0,14.557,4.863,14.557,4.863S34.163,4.9,30.393,20.308C26.623,4.9,15.312,6.989,15.312,6.989s3.98-4.863,14.558-4.863Z" transform="translate(-0.231 -0.308)" fill-rule="evenodd"/>
    </g>
  </g>
</svg>
