<svg xmlns="http://www.w3.org/2000/svg" width="158.08" height="133.026" viewBox="0 0 158.08 133.026">
  <g id="food" transform="translate(0 -32.001)">
    <g id="Group_5" data-name="Group 5" transform="translate(19.757 81.323)">
      <g id="Group_4" data-name="Group 4" transform="translate(0 0)">
        <path id="Path_1" data-name="Path 1" d="M166.084,202.654H73.868a9.783,9.783,0,0,0-9.88,9.658v6.439c0,22.973,12.983,43.809,33.876,54.375a3.335,3.335,0,0,0,4.44-1.384,3.189,3.189,0,0,0-1.416-4.34A54.456,54.456,0,0,1,70.575,218.75v-6.439a3.258,3.258,0,0,1,3.294-3.219h92.216a3.258,3.258,0,0,1,3.294,3.219v6.439a54.434,54.434,0,0,1-30.319,48.645,3.189,3.189,0,0,0-1.416,4.34,3.334,3.334,0,0,0,4.439,1.384c20.9-10.56,33.883-31.389,33.883-54.369v-6.439A9.783,9.783,0,0,0,166.084,202.654Z" transform="translate(-63.988 -202.654)" fill="#fff"/>
      </g>
    </g>
    <g id="Group_7" data-name="Group 7" transform="translate(0 145.704)">
      <g id="Group_6" data-name="Group 6">
        <path id="Path_2" data-name="Path 2" d="M151.249,417.956a3.3,3.3,0,0,0-3.043-1.99H3.3a3.3,3.3,0,0,0-3.043,1.99,3.16,3.16,0,0,0,.711,3.509l7.384,7.224a23.185,23.185,0,0,0,16.3,6.6H126.839a23.227,23.227,0,0,0,16.316-6.6l7.384-7.224A3.16,3.16,0,0,0,151.249,417.956Zm-12.758,6.181a16.566,16.566,0,0,1-11.645,4.713H24.651a16.566,16.566,0,0,1-11.645-4.713l-1.765-1.725H140.256Z" transform="translate(0 -415.966)" fill="#fff"/>
      </g>
    </g>
    <g id="Group_9" data-name="Group 9" transform="translate(109.637 94.802)">
      <g id="Group_8" data-name="Group 8" transform="translate(0 0)">
        <path id="Path_3" data-name="Path 3" d="M397.166,247.611c-8.872-5.576-23.047.477-24.635,1.178a3.194,3.194,0,0,0-1.634,4.269,3.322,3.322,0,0,0,4.367,1.6c3.175-1.41,13.358-4.752,18.338-1.616,2.246,1.41,3.346,4.147,3.346,8.345,0,12.89-26.6,20.681-36.867,22.6l-2.332.451a3.222,3.222,0,0,0-2.6,3.78,3.276,3.276,0,0,0,3.227,2.595,3.124,3.124,0,0,0,.639-.064l2.312-.444c1.726-.322,42.2-8.081,42.2-28.916C403.535,254.906,401.388,250.277,397.166,247.611Z" transform="translate(-355.093 -245.272)" fill="#fff"/>
      </g>
    </g>
    <g id="Group_11" data-name="Group 11" transform="translate(92.215 32.001)">
      <g id="Group_10" data-name="Group 10" transform="translate(0 0)">
        <path id="Path_4" data-name="Path 4" d="M307.838,56.541a18.945,18.945,0,0,0,0-23.328,3.335,3.335,0,0,0-4.63-.5,3.167,3.167,0,0,0-.514,4.526,12.751,12.751,0,0,1-.006,15.292,18.927,18.927,0,0,0,0,23.328,3.341,3.341,0,0,0,4.63.5,3.168,3.168,0,0,0,.514-4.526A12.732,12.732,0,0,1,307.838,56.541Z" transform="translate(-298.666 -32.001)" fill="#fff"/>
      </g>
    </g>
    <g id="Group_13" data-name="Group 13" transform="translate(72.433 32.003)">
      <g id="Group_12" data-name="Group 12" transform="translate(0 0)">
        <path id="Path_5" data-name="Path 5" d="M243.764,56.547a18.927,18.927,0,0,0,0-23.328,3.341,3.341,0,0,0-4.63-.5,3.168,3.168,0,0,0-.514,4.526,12.732,12.732,0,0,1-.007,15.292,18.945,18.945,0,0,0,0,23.328,3.341,3.341,0,0,0,4.63.5,3.167,3.167,0,0,0,.514-4.526A12.751,12.751,0,0,1,243.764,56.547Z" transform="translate(-234.597 -32.009)" fill="#fff"/>
      </g>
    </g>
    <g id="Group_15" data-name="Group 15" transform="translate(52.694 32.007)">
      <g id="Group_14" data-name="Group 14" transform="translate(0 0)">
        <path id="Path_6" data-name="Path 6" d="M179.838,56.562a18.945,18.945,0,0,0,0-23.328,3.334,3.334,0,0,0-4.63-.5,3.171,3.171,0,0,0-.514,4.52,12.751,12.751,0,0,1-.006,15.292,18.927,18.927,0,0,0,0,23.328,3.31,3.31,0,0,0,2.575,1.211,3.359,3.359,0,0,0,2.055-.7,3.168,3.168,0,0,0,.514-4.526A12.732,12.732,0,0,1,179.838,56.562Z" transform="translate(-170.666 -32.022)" fill="#fff"/>
      </g>
    </g>
  </g>
</svg>
