<svg xmlns="http://www.w3.org/2000/svg" xmlns:xlink="http://www.w3.org/1999/xlink" width="40" height="40" viewBox="0 0 40 40">
  <defs>
    <clipPath id="clip-path">
      <rect width="40" height="40" fill="none"/>
    </clipPath>
  </defs>
  <g id="Symbol_13_3" data-name="Symbol 13 – 3" clip-path="url(#clip-path)">
    <path id="Path_3" data-name="Path 3" d="M20,3.555a61.32,61.32,0,0,1,8,.222,10.306,10.306,0,0,1,3.778.667,7.8,7.8,0,0,1,3.778,3.778A10.306,10.306,0,0,1,36.22,12c0,2,.222,2.666.222,8a61.32,61.32,0,0,1-.222,8,10.306,10.306,0,0,1-.667,3.778,7.8,7.8,0,0,1-3.778,3.778A10.306,10.306,0,0,1,28,36.22c-2,0-2.666.222-8,.222a61.32,61.32,0,0,1-8-.222,10.306,10.306,0,0,1-3.778-.667,7.8,7.8,0,0,1-3.778-3.778A10.306,10.306,0,0,1,3.778,28c0-2-.222-2.666-.222-8a61.32,61.32,0,0,1,.222-8,10.306,10.306,0,0,1,.667-3.778A7.981,7.981,0,0,1,6,6,3.757,3.757,0,0,1,8.222,4.444,10.306,10.306,0,0,1,12,3.778a61.32,61.32,0,0,1,8-.222M20,0a65.656,65.656,0,0,0-8.222.222,13.718,13.718,0,0,0-4.889.889A8.7,8.7,0,0,0,3.333,3.333,8.7,8.7,0,0,0,1.111,6.888a10.125,10.125,0,0,0-.889,4.889A65.656,65.656,0,0,0,0,20,65.656,65.656,0,0,0,.222,28.22a13.718,13.718,0,0,0,.889,4.889,8.7,8.7,0,0,0,2.222,3.555,8.7,8.7,0,0,0,3.555,2.222,13.718,13.718,0,0,0,4.889.889A65.656,65.656,0,0,0,20,40a65.656,65.656,0,0,0,8.222-.222,13.718,13.718,0,0,0,4.889-.889,9.323,9.323,0,0,0,5.777-5.777,13.718,13.718,0,0,0,.889-4.889C39.775,26,40,25.332,40,20a65.656,65.656,0,0,0-.222-8.222,13.718,13.718,0,0,0-.889-4.889,8.7,8.7,0,0,0-2.222-3.555,8.7,8.7,0,0,0-3.555-2.222A13.718,13.718,0,0,0,28.22.222,65.656,65.656,0,0,0,20,0m0,9.777A10.057,10.057,0,0,0,9.777,20,10.222,10.222,0,1,0,20,9.777m0,16.888A6.547,6.547,0,0,1,13.332,20,6.547,6.547,0,0,1,20,13.332,6.547,6.547,0,0,1,26.665,20,6.547,6.547,0,0,1,20,26.665M30.665,6.888a2.444,2.444,0,1,0,2.444,2.444,2.466,2.466,0,0,0-2.444-2.444" fill-rule="evenodd"/>
  </g>
</svg>
