<svg id="emoji_1_" data-name="emoji (1)" xmlns="http://www.w3.org/2000/svg" width="147.607" height="144.026" viewBox="0 0 147.607 144.026">
  <g id="Group_18" data-name="Group 18" transform="translate(0 0)">
    <g id="Group_17" data-name="Group 17">
      <path id="Path_14" data-name="Path 14" d="M125.99,21.092a75.107,75.107,0,0,0-104.374,0,70.784,70.784,0,0,0,0,101.842,75.107,75.107,0,0,0,104.374,0,70.784,70.784,0,0,0,0-101.842ZM73.8,135.454c-35.851,0-65.017-28.459-65.017-63.44S37.953,8.573,73.8,8.573s65.017,28.459,65.017,63.44S109.654,135.454,73.8,135.454Z" transform="translate(0 0)" fill="#fff"/>
    </g>
  </g>
  <g id="Group_20" data-name="Group 20" transform="translate(30.458 47.731)">
    <g id="Group_19" data-name="Group 19">
      <path id="Path_15" data-name="Path 15" d="M133.03,174.945a18.8,18.8,0,0,0-26.093,0,4.213,4.213,0,0,0,0,6.062,4.471,4.471,0,0,0,6.213,0,9.847,9.847,0,0,1,13.668,0,4.469,4.469,0,0,0,6.212,0A4.213,4.213,0,0,0,133.03,174.945Z" transform="translate(-105.65 -169.68)" fill="#fff"/>
    </g>
  </g>
  <g id="Group_22" data-name="Group 22" transform="translate(88.481 47.731)">
    <g id="Group_21" data-name="Group 21">
      <path id="Path_16" data-name="Path 16" d="M334.292,174.945a18.8,18.8,0,0,0-26.093,0,4.213,4.213,0,0,0,0,6.062,4.472,4.472,0,0,0,6.213,0,9.847,9.847,0,0,1,13.668,0,4.469,4.469,0,0,0,6.212,0A4.213,4.213,0,0,0,334.292,174.945Z" transform="translate(-306.912 -169.68)" fill="#fff"/>
    </g>
  </g>
  <g id="Group_24" data-name="Group 24" transform="translate(30.459 75.157)">
    <g id="Group_23" data-name="Group 23">
      <path id="Path_17" data-name="Path 17" d="M187.948,267.175h-77.9a4.341,4.341,0,0,0-4.393,4.286c0,23.32,19.445,42.293,43.345,42.293s43.345-18.973,43.345-42.293A4.341,4.341,0,0,0,187.948,267.175ZM149,305.182c-17.568,0-32.117-12.856-34.281-29.434h68.562C181.112,292.326,166.564,305.182,149,305.182Z" transform="translate(-105.651 -267.175)" fill="#fff"/>
    </g>
  </g>
</svg>
